<svg width="16" height="16" viewBox="0 0 16 16" fill="none" xmlns="http://www.w3.org/2000/svg">
<path d="M6.01333 13.1666C5.44 13.1666 4.86666 12.8933 4.31999 12.3466L1.64666 9.6733C1.10666 9.1333 0.833328 8.56661 0.833328 7.97994C0.833328 7.39994 1.10666 6.82662 1.64666 6.28662L6.1 1.83329C6.19333 1.73996 6.32 1.68665 6.45333 1.68665C6.58666 1.68665 6.71333 1.73996 6.80666 1.83329L11.7067 6.73328C11.92 6.94661 12.04 7.22662 12.04 7.53328C12.04 7.83328 11.92 8.11996 11.7067 8.33329L7.69333 12.3466C7.16 12.8933 6.58666 13.1666 6.01333 13.1666ZM6.45999 2.89994L2.36 6.99996C2.01333 7.34663 1.83999 7.67995 1.83999 7.98661C1.83999 8.29328 2.01333 8.62659 2.36 8.96659L5.03333 11.6399C5.73333 12.3399 6.29999 12.3399 7 11.6399L11.0133 7.62663C11.0533 7.58663 11.06 7.48661 11.0133 7.43994L6.45999 2.89994Z" fill="#292D32"/>
<path d="M6.46003 2.6933C6.33336 2.6933 6.20669 2.64665 6.10669 2.54665L5.21336 1.6533C5.02003 1.45997 5.02003 1.13997 5.21336 0.946636C5.40669 0.753302 5.72669 0.753302 5.92003 0.946636L6.81336 1.83999C7.00669 2.03332 7.00669 2.35332 6.81336 2.54665C6.71336 2.64665 6.58669 2.6933 6.46003 2.6933Z" fill="#292D32"/>
<path d="M1.38015 8.4466C1.11349 8.4466 0.893488 8.23991 0.880155 7.96658C0.866821 7.69324 1.08016 7.45989 1.36016 7.44656L11.4468 7.00657C11.7202 6.99324 11.9535 7.20655 11.9668 7.48655C11.9802 7.75989 11.7668 7.99324 11.4868 8.00657L1.40015 8.4466C1.39349 8.4466 1.38682 8.4466 1.38015 8.4466Z" fill="#292D32"/>
<path d="M10.6667 15.1666H2C1.72667 15.1666 1.5 14.94 1.5 14.6666C1.5 14.3933 1.72667 14.1666 2 14.1666H10.6667C10.94 14.1666 11.1667 14.3933 11.1667 14.6666C11.1667 14.94 10.94 15.1666 10.6667 15.1666Z" fill="#292D32"/>
<path d="M12.5667 13.8866C11.6133 13.8866 10.8333 13.1066 10.8333 12.1533C10.8333 11.1866 11.9733 9.90662 12.2 9.65329C12.3867 9.44662 12.7467 9.44662 12.9333 9.65329C13.16 9.89996 14.3 11.18 14.3 12.1466C14.3 13.1133 13.52 13.8866 12.5667 13.8866ZM12.5667 10.78C12.2 11.26 11.8333 11.8466 11.8333 12.16C11.8333 12.5666 12.16 12.8933 12.5667 12.8933C12.9733 12.8933 13.3 12.5666 13.3 12.16C13.3 11.84 12.9333 11.2533 12.5667 10.78Z" fill="#292D32"/>
</svg>
