<svg width="8" height="12" viewBox="0 0 8 12" fill="none" xmlns="http://www.w3.org/2000/svg">
<path opacity="0.4" fill-rule="evenodd" clip-rule="evenodd" d="M5.3291 1.99996C5.3291 1.26358 5.92606 0.666626 6.66244 0.666626H6.66667C7.40305 0.666626 8 1.26358 8 1.99996C8 2.73634 7.40305 3.33329 6.66667 3.33329H6.66244C5.92606 3.33329 5.3291 2.73634 5.3291 1.99996ZM0 5.99996C0 5.26358 0.596954 4.66663 1.33333 4.66663H1.33756C2.07394 4.66663 2.6709 5.26358 2.6709 5.99996C2.6709 6.73634 2.07394 7.33329 1.33756 7.33329H1.33333C0.596954 7.33329 0 6.73634 0 5.99996ZM5.3291 9.99996C5.3291 9.26358 5.92606 8.66663 6.66244 8.66663H6.66667C7.40305 8.66663 8 9.26358 8 9.99996C8 10.7363 7.40305 11.3333 6.66667 11.3333H6.66244C5.92606 11.3333 5.3291 10.7363 5.3291 9.99996Z" fill="#141B34"/>
<path fill-rule="evenodd" clip-rule="evenodd" d="M0 1.99996C0 1.26358 0.596954 0.666626 1.33333 0.666626H1.33756C2.07394 0.666626 2.6709 1.26358 2.6709 1.99996C2.6709 2.73634 2.07394 3.33329 1.33756 3.33329H1.33333C0.596954 3.33329 0 2.73634 0 1.99996ZM5.3291 5.99996C5.3291 5.26358 5.92606 4.66663 6.66244 4.66663H6.66667C7.40305 4.66663 8 5.26358 8 5.99996C8 6.73634 7.40305 7.33329 6.66667 7.33329H6.66244C5.92606 7.33329 5.3291 6.73634 5.3291 5.99996ZM0 9.99996C0 9.26358 0.596954 8.66663 1.33333 8.66663H1.33756C2.07394 8.66663 2.6709 9.26358 2.6709 9.99996C2.6709 10.7363 2.07394 11.3333 1.33756 11.3333H1.33333C0.596954 11.3333 0 10.7363 0 9.99996Z" fill="#141B34"/>
</svg>
