<svg width="16" height="16" viewBox="0 0 16 16" fill="none" xmlns="http://www.w3.org/2000/svg">
<path opacity="0.4" fill-rule="evenodd" clip-rule="evenodd" d="M9.3291 3.99996C9.3291 3.26358 9.92606 2.66663 10.6624 2.66663H10.6667C11.403 2.66663 12 3.26358 12 3.99996C12 4.73634 11.403 5.33329 10.6667 5.33329H10.6624C9.92606 5.33329 9.3291 4.73634 9.3291 3.99996ZM4 7.99996C4 7.26358 4.59695 6.66663 5.33333 6.66663H5.33756C6.07394 6.66663 6.6709 7.26358 6.6709 7.99996C6.6709 8.73634 6.07394 9.33329 5.33756 9.33329H5.33333C4.59695 9.33329 4 8.73634 4 7.99996ZM9.3291 12C9.3291 11.2636 9.92606 10.6666 10.6624 10.6666H10.6667C11.403 10.6666 12 11.2636 12 12C12 12.7363 11.403 13.3333 10.6667 13.3333H10.6624C9.92606 13.3333 9.3291 12.7363 9.3291 12Z" fill="#141B34"/>
<path fill-rule="evenodd" clip-rule="evenodd" d="M4 3.99996C4 3.26358 4.59695 2.66663 5.33333 2.66663H5.33756C6.07394 2.66663 6.6709 3.26358 6.6709 3.99996C6.6709 4.73634 6.07394 5.33329 5.33756 5.33329H5.33333C4.59695 5.33329 4 4.73634 4 3.99996ZM9.3291 7.99996C9.3291 7.26358 9.92606 6.66663 10.6624 6.66663H10.6667C11.403 6.66663 12 7.26358 12 7.99996C12 8.73634 11.403 9.33329 10.6667 9.33329H10.6624C9.92606 9.33329 9.3291 8.73634 9.3291 7.99996ZM4 12C4 11.2636 4.59695 10.6666 5.33333 10.6666H5.33756C6.07394 10.6666 6.6709 11.2636 6.6709 12C6.6709 12.7363 6.07394 13.3333 5.33756 13.3333H5.33333C4.59695 13.3333 4 12.7363 4 12Z" fill="#141B34"/>
</svg>
